<?xml version="1.0" encoding="UTF-8" standalone="no"?><!DOCTYPE svg PUBLIC "-//W3C//DTD SVG 1.1//EN" "http://www.w3.org/Graphics/SVG/1.1/DTD/svg11.dtd"><svg width="100%" height="100%" viewBox="0 0 632 265" version="1.1" xmlns="http://www.w3.org/2000/svg" xmlns:xlink="http://www.w3.org/1999/xlink" xml:space="preserve" xmlns:serif="http://www.serif.com/" style="fill-rule:evenodd;clip-rule:evenodd;stroke-linejoin:round;stroke-miterlimit:2;"><g><path d="M72.26,96.258c-0.987,-4.789 -1.961,-9.241 -2.95,-13.184c-0.507,-2.019 -3.323,-2.164 -4.033,-0.206c-1.386,3.822 -2.809,8.151 -4.279,12.814c-0.416,1.319 0.524,2.679 1.905,2.75l7.181,0.367c1.381,0.071 2.455,-1.187 2.176,-2.541m-44.078,29.143c0.407,-7.97 13.904,-48.684 25.785,-65.925c2.017,-2.906 3.659,-4.586 8.834,-4.322l12.834,0.657c5.175,0.264 6.637,2.103 8.347,5.2c10.061,18.363 19.334,60.241 18.927,68.211c-0.17,3.312 -1.982,4.257 -4.57,4.125l-13.972,-0.715c-4.658,-0.238 -6.555,-1.684 -6.898,-5.126c-0.293,-2.555 -0.586,-5.11 -0.934,-7.668c-0.138,-1.004 -0.979,-1.769 -1.992,-1.821l-17.947,-0.918c-1.007,-0.051 -1.91,0.615 -2.157,1.592c-0.635,2.513 -1.257,5.027 -1.81,7.545c-0.796,3.383 -2.728,4.634 -7.385,4.396l-12.937,-0.662c-2.588,-0.132 -4.295,-1.257 -4.125,-4.569" style="fill:#00c0d4;fill-rule:nonzero;"/><path d="M179.244,128.319l-4.507,-65.757c-0.248,-3.619 1.197,-5.276 4.816,-5.524l44.251,-3.033c3.619,-0.248 5.276,1.196 5.524,4.815l0.709,10.339c0.248,3.619 -1.197,5.276 -4.815,5.524l-25.745,1.765l0.51,7.444l21.506,-1.474c3.619,-0.248 5.276,1.196 5.524,4.815l0.652,9.513c0.248,3.618 -1.197,5.276 -4.816,5.524l-21.505,1.473l0.51,7.445l25.745,-1.765c3.618,-0.248 5.276,1.197 5.524,4.815l0.708,10.339c0.248,3.619 -1.196,5.276 -4.815,5.524l-44.252,3.033c-3.619,0.248 -5.276,-1.196 -5.524,-4.815" style="fill:#00c0d4;fill-rule:nonzero;"/><path d="M332.762,123.683l1.598,-45.117c0.047,-1.327 -0.99,-2.44 -2.317,-2.487l-8.557,-0.303c-4.186,-0.148 -7.46,-3.662 -7.312,-7.848l0.212,-5.968c0.148,-4.187 3.662,-7.46 7.849,-7.312l45.634,1.616c4.187,0.148 7.46,3.662 7.312,7.849l-0.211,5.967c-0.148,4.187 -3.662,7.46 -7.849,7.312l-8.557,-0.303c-1.327,-0.047 -2.44,0.99 -2.487,2.317l-1.598,45.117c-0.148,4.186 -3.662,7.46 -7.848,7.312l-8.557,-0.303c-4.187,-0.148 -7.46,-3.663 -7.312,-7.849" style="fill:#00c0d4;fill-rule:nonzero;"/><path d="M490.929,89.278c5.579,-0.432 8.193,-2.922 7.841,-7.468c-0.352,-4.546 -3.319,-6.603 -8.898,-6.171l-5.016,0.389c-1.738,0.134 -3.038,1.652 -2.903,3.389l0.569,7.347c0.135,1.738 1.652,3.037 3.39,2.903l5.017,-0.389Zm8.787,36.947c-2.489,-6.622 -4.948,-11.651 -8.223,-16.805c-0.317,-0.499 -0.891,-0.783 -1.48,-0.737l-4.165,0.322c-0.88,0.068 -1.538,0.837 -1.47,1.718l1.36,17.561c0.171,2.203 -1.477,4.128 -3.68,4.299l-15.682,1.214c-2.204,0.171 -4.128,-1.477 -4.299,-3.68l-5.272,-68.068c-0.171,-2.204 1.477,-4.128 3.68,-4.299l28.558,-2.212c21.181,-1.641 33.053,6.691 34.422,24.36c0.728,9.404 -2.226,16.633 -8.474,21.496c-0.901,0.702 -1.045,2.028 -0.326,2.916c4.854,5.997 7.688,10.745 10.61,17.753c1.911,4.529 0.76,7.113 -3.58,7.449l-14.155,1.097c-4.134,0.32 -6.519,-0.95 -7.824,-4.384" style="fill:#00c0d4;fill-rule:nonzero;"/><path d="M571.434,87.668c-1.251,-4.815 -2.471,-9.283 -3.68,-13.223c-0.597,-1.946 -3.35,-1.946 -3.948,0c-1.208,3.94 -2.428,8.408 -3.68,13.223c-0.34,1.308 0.646,2.589 1.998,2.589l7.313,0c1.351,0 2.337,-1.281 1.997,-2.589m-42.548,31.296c0,-7.98 11.4,-49.33 22.386,-67.155c1.865,-3.006 3.419,-4.767 8.601,-4.767l12.851,0c5.182,0 6.736,1.761 8.601,4.767c10.986,17.825 22.386,59.175 22.386,67.155c0,3.316 -1.762,4.353 -4.353,4.353l-13.991,0c-4.663,0 -6.633,-1.348 -7.151,-4.767c-0.425,-2.55 -0.849,-5.099 -1.331,-7.649c-0.185,-0.974 -1.044,-1.678 -2.036,-1.678l-18.049,0c-0.985,0 -1.834,0.696 -2.026,1.662c-0.508,2.555 -1.004,5.11 -1.43,7.665c-0.622,3.419 -2.487,4.767 -7.151,4.767l-12.954,0c-2.591,0 -4.353,-1.037 -4.353,-4.353" style="fill:#00c0d4;fill-rule:nonzero;"/><path d="M424.415,91.708c0,8.912 -1.762,11.089 -8.809,11.089c-7.047,0 -8.809,-2.177 -8.809,-11.089l0,-7.716c0,-3.545 -2.874,-6.419 -6.419,-6.419l-10.894,0c-3.545,0 -6.419,2.874 -6.419,6.419l0,8.027c0,22.488 9.534,31.919 32.541,31.919c23.007,0 32.542,-9.431 32.542,-31.919l0,-8.027c0,-3.545 -2.874,-6.419 -6.419,-6.419l-10.896,0c-3.544,0 -6.418,2.874 -6.418,6.419l0,7.716Z" style="fill:#00c0d4;fill-rule:nonzero;"/><path d="M406.797,59.218c0,-6.553 -5.312,-11.866 -11.866,-11.866c-6.553,-0 -11.866,5.313 -11.866,11.866l0,7.01c0,3.692 2.993,6.684 6.685,6.684l10.363,-0c3.691,-0 6.684,-2.992 6.684,-6.684l0,-7.01Z" style="fill:#00c0d4;fill-rule:nonzero;"/><path d="M436.282,47.352c-6.554,0 -11.867,5.313 -11.867,11.866l-0,7.01c-0,3.691 2.993,6.684 6.685,6.684l10.364,0c3.691,0 6.684,-2.993 6.684,-6.684l-0,-7.01c-0,-6.553 -5.313,-11.866 -11.866,-11.866" style="fill:#00c0d4;fill-rule:nonzero;"/><path d="M205.329,187.062c-1.264,-3.599 -2.492,-6.987 -3.687,-10.08c-0.971,-2.511 -4.626,-2.21 -5.173,0.426c-0.674,3.246 -1.332,6.79 -1.99,10.547c-0.307,1.746 1.122,3.315 2.889,3.17l5.629,-0.463c1.767,-0.146 2.919,-1.927 2.332,-3.6m-39.562,35.467c-0.654,-7.953 7.316,-50.099 16.802,-68.765c1.613,-3.148 3.018,-5.031 8.182,-5.456l12.807,-1.054c5.165,-0.425 6.858,1.203 8.964,4.045c12.41,16.865 27.163,57.141 27.817,65.094c0.272,3.305 -1.399,4.482 -3.981,4.695l-13.944,1.147c-4.647,0.383 -6.72,-0.799 -7.517,-4.165c-0.589,-2.334 -1.179,-4.669 -1.814,-6.999c-0.342,-1.255 -1.541,-2.083 -2.837,-1.976l-16.932,1.393c-1.287,0.106 -2.323,1.107 -2.469,2.391c-0.275,2.413 -0.536,4.824 -0.737,7.231c-0.339,3.459 -2.087,4.955 -6.736,5.338l-12.91,1.062c-2.582,0.213 -4.423,-0.676 -4.695,-3.981" style="fill:#012169;fill-rule:nonzero;"/><path d="M245.749,219.43l2.677,-57.125c0.273,-5.833 5.223,-10.34 11.056,-10.067l9.211,0.432c3.623,0.17 5.946,1.523 7.343,4.909l10.411,25.802c1.21,2.962 2.425,5.82 3.601,9.506l0.419,-0.084c-0.126,-3.948 -0.036,-8.094 0.134,-11.717l0.878,-18.755c0.222,-4.736 4.241,-8.395 8.977,-8.173l5.833,0.273c4.735,0.222 8.394,4.241 8.172,8.976l-2.689,57.389c-0.264,5.649 -5.059,10.014 -10.708,9.749l-9.543,-0.447c-3.624,-0.169 -5.946,-1.523 -7.344,-4.909l-10.411,-25.802c-1.21,-2.962 -2.425,-5.82 -3.6,-9.506l-0.42,0.084c0.127,3.948 0.037,8.094 -0.133,11.717l-1.021,21.785c-0.143,3.062 -2.742,5.428 -5.805,5.285l-8.932,-0.419c-4.697,-0.22 -8.326,-4.206 -8.106,-8.903" style="fill:#012169;fill-rule:nonzero;"/><path d="M322.134,188.936c-3.264,-28.833 7.722,-40.507 29.862,-43.013c8.444,-0.956 14.5,0.028 16.962,0.583c3.938,0.701 5.533,2.816 5.243,6.707l-1.029,11.172c-0.337,3.48 -2.061,4.823 -5.588,4.075c-3.641,-0.84 -6.733,-1.429 -10.645,-0.986c-9.269,1.05 -11.697,5.392 -10.193,18.676c1.503,13.284 4.841,16.974 14.11,15.925c4.015,-0.455 6.725,-1.387 11.105,-3.239c3.785,-1.576 6.247,-1.02 6.655,2.584l1.352,11.945c0.396,3.502 -1.053,5.439 -5.135,7.153c-4.574,1.977 -8.932,3.097 -13.978,3.668c-22.14,2.506 -35.457,-6.416 -38.721,-35.25" style="fill:#012169;fill-rule:nonzero;"/><path d="M388.538,217.228l2.032,-56.793c0.061,-1.705 1.493,-3.038 3.199,-2.977l17.539,0.627c1.706,0.061 3.039,1.493 2.978,3.199l-2.031,56.792c-0.145,4.05 -3.545,7.215 -7.595,7.07l-9.052,-0.324c-4.05,-0.145 -7.215,-3.545 -7.07,-7.594" style="fill:#012169;fill-rule:nonzero;"/><path d="M392.286,147.767l8.227,-9.679c1.334,-1.57 3.779,-1.499 5.02,0.146l7.756,10.286c1.212,1.606 0.017,3.899 -1.993,3.828l-17.263,-0.618c-2.009,-0.072 -3.049,-2.431 -1.747,-3.963" style="fill:#012169;fill-rule:nonzero;"/><path d="M421.989,215.765l3.788,-63.223c0.214,-3.566 3.278,-6.285 6.845,-6.071l41.705,2.499c3.566,0.214 6.285,3.278 6.071,6.845l-0.466,7.774c-0.213,3.566 -3.278,6.284 -6.844,6.071l-23.189,-1.39c-0.71,-0.042 -1.32,0.499 -1.362,1.209l-0.293,4.877c-0.042,0.71 0.499,1.32 1.209,1.363l18.947,1.135c3.566,0.214 6.284,3.278 6.071,6.845l-0.417,6.946c-0.213,3.567 -3.278,6.285 -6.845,6.071l-18.946,-1.135c-0.71,-0.042 -1.32,0.499 -1.363,1.209l-0.292,4.877c-0.043,0.71 0.499,1.32 1.209,1.362l23.188,1.39c3.566,0.213 6.284,3.278 6.071,6.845l-0.466,7.774c-0.214,3.566 -3.278,6.284 -6.845,6.071l-41.705,-2.499c-3.567,-0.214 -6.285,-3.278 -6.071,-6.845" style="fill:#012169;fill-rule:nonzero;"/><path d="M512.651,182.522l0,-13.68l8.188,-0c5.595,-0 8.394,2.28 8.394,6.84c0,4.56 -2.799,6.84 -8.394,6.84l-8.188,-0Zm84.904,3.934l-6.624,-0.237c-1.526,-0.055 -2.585,-1.54 -2.147,-3.003c1.289,-4.31 2.542,-8.333 3.769,-11.931c0.743,-2.179 3.864,-2.067 4.45,0.159c0.967,3.677 1.93,7.779 2.907,12.17c0.332,1.49 -0.83,2.896 -2.355,2.842m33.408,27.049c-1.313,-12.299 -10.383,-48.438 -19.812,-65.037c-1.757,-3.07 -3.247,-4.886 -8.426,-5.071l-12.842,-0.459c-5.179,-0.185 -6.795,1.52 -8.766,4.457c-11.616,17.421 -24.485,58.338 -24.77,66.313c-0.118,3.314 1.605,4.413 4.195,4.505l12.945,0.463c4.662,0.167 6.573,-1.113 7.317,-4.509c0.503,-2.467 1.071,-4.933 1.653,-7.397c0.255,-1.082 1.241,-1.832 2.351,-1.793l17.602,0.629c1.118,0.04 2.059,0.869 2.226,1.975c0.376,2.493 3.14,12.787 -2.18,22.631c-2.824,5.226 -9.81,9.499 -18.92,10.667c-10.156,1.306 -17.959,-4.441 -25.026,-12.659c-6.35,-7.386 -12.587,-25.296 -16.426,-30.671c7.773,-4.249 11.918,-11.607 11.918,-21.867c0,-17.722 -11.193,-26.945 -32.438,-26.945l-27.463,-0c-2.862,-0 -5.182,2.32 -5.182,5.182l0,65.911c0,2.862 2.32,5.182 5.182,5.182l13.369,-0c2.861,-0 5.181,-2.32 5.181,-5.181l0,-18.033c4.23,-0 10.193,6.007 14.947,18.57c0,-0 14.917,44.194 51.609,44.194c2.355,-0 4.801,-0.154 7.328,-0.478c16.081,-2.062 27.96,-8.539 36.012,-18.707c9.469,-11.957 8.75,-29.525 8.416,-31.872" style="fill:#012169;fill-rule:nonzero;"/><path d="M299.512,46.186c-6.171,-0.678 -14.606,1.46 -14.491,9.372c0.075,6.813 -0.179,18.675 0.182,26.861c0.024,0.551 -0.743,0.697 -0.919,0.175c-3.071,-9.133 -12.052,-34.196 -24.017,-53.105c-8.244,-13.027 -20.739,-23.018 -35.562,-27.257c-44.945,-12.854 -83.021,31.655 -93.816,86.381c-0.151,0.762 -1.199,0.825 -1.431,0.084c-3.335,-10.602 -7.261,-21.207 -8.809,-34.367c-1.903,-16.176 -25.889,-10.363 -25.386,-2.936c0.86,12.708 11.392,49.329 22.384,67.155c2.535,7.174 30.425,8.842 33.302,-6.48c3.807,-20.279 8.693,-39.824 18.813,-57.402c10.884,-18.903 28.047,-32.06 46.321,-29.21c10.61,1.655 19.372,9.036 23.811,18.814c15.308,33.717 -8.337,78.607 10.63,79.047c6.13,0.663 16.759,-0.805 16.613,-8.726c0,-0 0.535,-14.934 1.552,-19.702c0.104,-0.487 0.766,-0.559 0.974,-0.106l11.004,23.973c1.555,3.317 3.938,4.56 7.566,4.56c6.663,-0.073 20.077,1.901 19.793,-8.515c0.001,-0 0.001,-59.245 0.001,-59.245c0,-4.703 -3.812,-9.371 -8.515,-9.371" style="fill:#00c0d4;fill-rule:nonzero;"/><path d="M162.369,146.429l-6.156,-3.326c-2.733,-1.477 -6.136,-0.352 -7.456,2.46c-1.007,2.146 -2.248,4.917 -3.611,8.229c-3.572,8.681 -7.976,21.087 -11.174,35.74c-0.178,0.816 -0.353,1.639 -0.523,2.469c-1.139,-3.431 -2.308,-6.16 -3.474,-8.973l-10.534,-25.753c-1.413,-3.378 -3.743,-4.721 -7.367,-4.874l-13.962,-0.587c-3.211,-0.135 -5.924,2.359 -6.059,5.57l-2.636,62.66c-0.179,4.271 3.137,7.879 7.408,8.059l8.856,0.372c3.534,0.149 6.518,-2.595 6.667,-6.129l0.881,-20.937c0.152,-3.624 0.223,-7.77 0.077,-11.718l0.419,-0.086c1.193,3.681 2.422,6.533 3.646,9.489l10.535,25.752c1.413,3.379 3.742,4.721 7.366,4.874l13.379,0.562c3.533,0.149 6.518,-2.595 6.667,-6.128l0.015,-0.363c0.809,-19.226 4.583,-38.236 11.455,-56.21c1.694,-4.43 3.261,-8.038 4.449,-10.624c1.191,-2.594 0.171,-5.663 -2.343,-7.016l-6.525,-3.512Z" style="fill:#012169;fill-rule:nonzero;"/><path d="M47.006,151.842c-14.059,1 -28.118,2.001 -42.177,3.002c-1.809,0.129 -3.073,0.608 -3.853,1.508c-0.78,0.9 -1.076,2.22 -0.947,4.029c0.829,11.643 1.658,23.286 2.487,34.93c0.731,10.271 1.463,20.543 2.194,30.815c0.128,1.809 0.608,3.073 1.508,3.854c0.899,0.78 2.219,1.075 4.028,0.946l13.336,-0.949c3.618,-0.258 5.057,-1.918 4.799,-5.536c-0.433,-6.099 -0.868,-12.199 -1.302,-18.297c6.478,-0.462 12.957,-0.923 19.435,-1.384c0.886,-0.063 1.642,-0.211 2.274,-0.451c1.948,-0.738 2.72,-2.355 2.525,-5.086c-0.254,-3.583 -0.51,-7.167 -0.765,-10.751c-0.257,-3.618 -1.917,-5.058 -5.536,-4.8c-6.478,0.461 -12.956,0.922 -19.434,1.383c-0.079,-1.105 -0.158,-2.211 -0.237,-3.316c-0.169,-2.375 -0.337,-4.75 -0.506,-7.124c7.891,-0.562 15.781,-1.124 23.672,-1.686c3.618,-0.257 5.058,-1.918 4.801,-5.536l-0.766,-10.751c-0.129,-1.809 -0.608,-3.073 -1.508,-3.854c-0.764,-0.663 -1.832,-0.976 -3.246,-0.976c-0.25,-0 -0.51,0.01 -0.782,0.03Z" style="fill:#012169;fill-rule:nonzero;"/><path d="M59.333,217.228l2.032,-56.793c0.061,-1.705 1.493,-3.038 3.199,-2.977l17.539,0.627c1.706,0.061 3.039,1.493 2.978,3.199l-2.031,56.792c-0.145,4.05 -3.546,7.215 -7.595,7.07l-9.052,-0.324c-4.05,-0.145 -7.215,-3.545 -7.07,-7.594" style="fill:#012169;fill-rule:nonzero;"/><path d="M63.081,147.767l8.227,-9.679c1.334,-1.57 3.779,-1.499 5.02,0.146l7.756,10.286c1.212,1.606 0.017,3.899 -1.993,3.828l-17.263,-0.618c-2.009,-0.072 -3.049,-2.431 -1.747,-3.963" style="fill:#012169;fill-rule:nonzero;"/></g></svg>