<svg width="1920" height="1197" viewBox="0 0 1920 1197" fill="none" xmlns="http://www.w3.org/2000/svg">
<mask id="mask0_483_873" style="mask-type:alpha" maskUnits="userSpaceOnUse" x="0" y="0" width="1920" height="1197">
<rect width="1920" height="1197" fill="#D9D9D9"/>
</mask>
<g mask="url(#mask0_483_873)">
<g filter="url(#filter0_d_483_873)">
<path d="M929.947 258.723C872.747 -29.2774 228.502 16.3739 -26.4983 91.8739C-50.1649 610.874 -319.943 723.729 48.9453 1008.72C497.445 1355.22 846.945 961.223 1046.95 876.723C1142.6 836.31 1879.45 1298.38 2046.45 1109.72C2213.45 921.067 2226.45 1487.22 2226.45 1487.22C2313.95 1413.06 2230.45 924.323 2020.45 774.723C1757.95 587.723 1516.95 751.223 1281.45 822.223C1045.95 893.223 1001.45 618.723 929.947 258.723Z" fill="url(#paint0_linear_483_873)"/>
</g>
</g>
<defs>
<filter id="filter0_d_483_873" x="-163.087" y="34.7" width="2443.2" height="1490.82" filterUnits="userSpaceOnUse" color-interpolation-filters="sRGB">
<feFlood flood-opacity="0" result="BackgroundImageFix"/>
<feColorMatrix in="SourceAlpha" type="matrix" values="0 0 0 0 0 0 0 0 0 0 0 0 0 0 0 0 0 0 127 0" result="hardAlpha"/>
<feOffset dy="19"/>
<feGaussianBlur stdDeviation="9.65"/>
<feComposite in2="hardAlpha" operator="out"/>
<feColorMatrix type="matrix" values="0 0 0 0 0.893333 0 0 0 0 0.67536 0 0 0 0 0.3484 0 0 0 0.21 0"/>
<feBlend mode="normal" in2="BackgroundImageFix" result="effect1_dropShadow_483_873"/>
<feBlend mode="normal" in="SourceGraphic" in2="effect1_dropShadow_483_873" result="shape"/>
</filter>
<linearGradient id="paint0_linear_483_873" x1="586.941" y1="344.224" x2="1792.44" y2="1316.22" gradientUnits="userSpaceOnUse">
<stop stop-color="#F68E1F"/>
<stop offset="1" stop-color="#DA7109"/>
</linearGradient>
</defs>
</svg>
