<?xml version="1.0" encoding="UTF-8" standalone="no"?><!DOCTYPE svg PUBLIC "-//W3C//DTD SVG 1.1//EN" "http://www.w3.org/Graphics/SVG/1.1/DTD/svg11.dtd"><svg width="100%" height="100%" viewBox="0 0 1440 812" version="1.1" xmlns="http://www.w3.org/2000/svg" xmlns:xlink="http://www.w3.org/1999/xlink" xml:space="preserve" xmlns:serif="http://www.serif.com/" style="fill-rule:evenodd;clip-rule:evenodd;stroke-linejoin:round;stroke-miterlimit:2;"><path d="M99.336,506.08c17.804,-28.198 1.943,-67.728 -30.068,-76.503c-23.486,-6.439 -49.419,2.19 -62.036,23.782c-13.817,23.644 -6.744,54.122 11.962,72.775c12.365,12.33 29.027,17.47 45.158,22.757c50.183,16.446 101.707,28.797 153.921,36.722c54.679,8.299 109.754,12.919 165.083,12.08c27.096,-0.411 55.27,-0.981 81.605,-7.915c26.329,-6.932 51.702,-21.571 69.562,-42.315c31.453,-36.534 46.879,-83.072 53.339,-130.243c7.157,-52.26 6.034,-103.647 -1.21,-155.846c-6.579,-47.401 -20.249,-93.996 -42.633,-136.435c-21.981,-41.677 -55.323,-79.915 -97.626,-101.741c-43.568,-22.479 -93.312,-29.401 -141.073,-17.325c-43.887,11.096 -83.223,38.745 -110.93,74.2c-29.562,37.83 -50.463,81.204 -61.909,127.931c-12.357,50.446 -13.899,101.381 -6.416,152.583c7.42,50.776 26.489,99.944 51.076,144.79c22.816,41.614 51.619,80.782 84.874,114.655c63.126,64.297 145.684,110.76 236.669,116.971c85.3,5.822 166.204,-32.244 223.991,-93.623c60.901,-64.687 100.859,-150.648 113.003,-238.504c3.46,-25.029 5.852,-49.957 5.267,-75.252c-0.577,-24.876 -2.439,-50.876 -9.59,-74.784c-15.292,-51.132 -54.484,-109.6 -115.472,-98.69c-33.151,5.93 -53.024,37.042 -63.086,66.418c-8.186,23.903 -11.853,49.36 -15.055,74.315c-5.849,45.573 -3.344,90.992 3.601,136.293c6.823,44.505 20.416,86.919 37.968,128.274c15.602,36.758 35.401,71.634 59.737,103.326c26.98,35.136 56.975,65.808 93.479,91.199c43.773,30.449 94.302,49.485 147.297,54.902c48.614,4.968 100.33,-6.893 141.755,-32.896c38.592,-24.224 70.485,-58.94 93.123,-98.36c24.967,-43.474 38.974,-92.549 41.867,-142.52c2.841,-49.067 -8.289,-97.778 -28.287,-142.336c-17.258,-38.452 -46.198,-75.457 -83.653,-95.937c-21.132,-11.555 -46.204,-19.232 -70.5,-17.968c-18,0.937 -35.271,5.133 -51.005,14.161c-15.235,8.741 -27.118,21.497 -36.755,35.986c-16.052,24.133 -21.998,54.275 -24.254,82.657c-2.182,27.453 1.248,55.816 7.479,82.543c11.238,48.204 34.719,93.656 61.497,134.97c28.751,44.358 60.451,86.825 103.194,118.542c40.03,29.705 90.665,39.443 139.081,28.741c49.066,-10.847 89.668,-44.149 118.006,-84.481c28.199,-40.136 41.136,-89.147 46.262,-137.299c4.733,-44.471 -0.087,-91.843 -15.337,-133.957c-4.294,-11.86 -10.73,-21.951 -21.91,-28.494c-10.22,-5.98 -25.281,-8.514 -36.738,-4.806c-22.998,7.442 -42.391,33.542 -33.3,58.648c6.043,16.689 10.153,33.921 12.647,51.486c-0.568,-4.225 -1.136,-8.45 -1.703,-12.675c3.433,25.585 3.409,51.441 0.126,77.04c0.568,-4.225 1.135,-8.45 1.703,-12.675c-3.196,23.576 -9.125,46.663 -18.343,68.618c1.602,-3.797 3.204,-7.593 4.806,-11.39c-6.734,15.66 -15.08,30.462 -25.444,44.014c2.485,-3.216 4.97,-6.433 7.455,-9.649c-8.549,10.913 -18.216,20.754 -29.109,29.337c3.216,-2.485 6.432,-4.97 9.649,-7.455c-10.324,7.93 -21.458,14.536 -33.452,19.611c3.796,-1.602 7.593,-3.204 11.389,-4.806c-10.449,4.259 -21.251,7.245 -32.427,8.826l12.674,-1.703c-10.431,1.324 -20.859,1.38 -31.298,0.101c4.225,0.568 8.45,1.135 12.675,1.703c-10.579,-1.457 -20.786,-4.249 -30.645,-8.348l11.389,4.806c-11.656,-5.055 -22.407,-11.721 -32.508,-19.398l9.649,7.455c-19.56,-15.21 -36.087,-33.741 -51.195,-53.287c2.485,3.217 4.97,6.433 7.454,9.649c-28.396,-37.094 -54.294,-77.332 -72.715,-120.363c1.602,3.796 3.204,7.593 4.806,11.389c-9.727,-23.125 -17.012,-47.129 -20.588,-71.994c0.568,4.225 1.136,8.45 1.704,12.675c-2.549,-19.021 -3,-38.263 -0.508,-57.316c-0.568,4.225 -1.135,8.45 -1.703,12.675c1.656,-11.485 4.361,-22.693 8.694,-33.474c-1.602,3.796 -3.204,7.593 -4.806,11.389c2.894,-6.808 6.367,-13.197 10.796,-19.132l-7.455,9.649c2.975,-3.757 6.189,-7.087 9.869,-10.164c-3.216,2.485 -6.432,4.97 -9.649,7.455c3.913,-3.022 7.971,-5.477 12.466,-7.532c-3.796,1.603 -7.592,3.205 -11.389,4.807c5.017,-2.075 10.106,-3.469 15.468,-4.312c-4.225,0.568 -8.45,1.136 -12.675,1.703c6.672,-0.839 13.255,-0.779 19.927,0.021c-4.224,-0.568 -8.449,-1.135 -12.674,-1.703c7.819,1.129 15.314,3.178 22.636,6.142c-3.796,-1.602 -7.593,-3.204 -11.389,-4.807c8.807,3.73 16.949,8.596 24.574,14.358c-3.216,-2.485 -6.433,-4.97 -9.649,-7.455c10.354,8.038 19.386,17.461 27.412,27.807c-2.485,-3.217 -4.97,-6.433 -7.455,-9.65c10.913,14.362 19.67,30.112 26.713,46.699c-1.602,-3.796 -3.205,-7.592 -4.807,-11.389c8.676,20.899 14.504,42.781 17.599,65.19c-0.568,-4.225 -1.136,-8.45 -1.704,-12.675c2.94,22.577 2.893,45.222 -0.076,67.792c0.567,-4.225 1.135,-8.45 1.703,-12.675c-3.358,24.056 -9.786,47.476 -19.202,69.866l4.807,-11.389c-8.808,20.513 -19.985,39.84 -33.561,57.569c2.485,-3.216 4.97,-6.432 7.455,-9.649c-12.107,15.562 -25.902,29.646 -41.506,41.719c3.216,-2.485 6.433,-4.97 9.649,-7.455c-12.407,9.429 -25.741,17.438 -40.072,23.585c3.796,-1.602 7.592,-3.204 11.389,-4.806c-14.665,6.113 -29.933,10.287 -45.651,12.583c4.225,-0.568 8.45,-1.136 12.675,-1.704c-17.824,2.394 -35.729,2.288 -53.559,0.005c4.225,0.567 8.45,1.135 12.675,1.703c-21.156,-2.925 -41.636,-8.806 -61.353,-16.969c3.797,1.602 7.593,3.204 11.389,4.806c-24.183,-10.247 -46.918,-23.661 -67.722,-39.684c3.216,2.485 6.433,4.97 9.649,7.455c-23.886,-18.609 -44.951,-40.476 -63.535,-64.345c2.485,3.217 4.97,6.433 7.455,9.65c-24.592,-31.876 -44.601,-67.013 -60.301,-104.058c1.602,3.796 3.204,7.593 4.806,11.389c-16.751,-39.966 -28.378,-81.926 -34.317,-124.859c0.568,4.225 1.136,8.449 1.703,12.674c-5.186,-38.704 -5.666,-77.899 -0.612,-116.645c-0.568,4.225 -1.136,8.45 -1.704,12.675c3.048,-22.481 7.156,-45.755 15.567,-66.914c-1.602,3.796 -3.204,7.593 -4.806,11.389c2.227,-5.24 4.809,-10.151 8.223,-14.72c-2.485,3.216 -4.97,6.433 -7.455,9.649c2.189,-2.661 4.528,-5.02 7.25,-7.137c-3.216,2.485 -6.433,4.97 -9.649,7.455c1.893,-1.34 3.816,-2.462 5.934,-3.401c-3.796,1.602 -7.593,3.204 -11.389,4.806c1.984,-0.757 3.936,-1.277 6.034,-1.586c-4.225,0.567 -8.449,1.135 -12.674,1.703c2.057,-0.189 4.027,-0.154 6.075,0.092c-4.225,-0.568 -8.45,-1.135 -12.674,-1.703c2.53,0.433 4.891,1.15 7.262,2.135c-3.796,-1.602 -7.593,-3.204 -11.389,-4.806c2.973,1.375 5.673,3.042 8.307,4.986c-3.217,-2.485 -6.433,-4.97 -9.649,-7.455c5.09,3.988 9.422,8.669 13.38,13.769c-2.485,-3.216 -4.97,-6.433 -7.455,-9.649c6.379,8.527 11.471,17.827 15.712,27.582c-1.602,-3.797 -3.204,-7.593 -4.806,-11.39c5.377,12.81 9.186,26.148 11.051,39.924c-0.567,-4.224 -1.135,-8.449 -1.703,-12.674c4.173,33.426 3.873,67.171 -0.502,100.56c0.568,-4.225 1.135,-8.449 1.703,-12.674c-4.978,36.542 -14.745,72.233 -28.985,106.251c1.602,-3.797 3.204,-7.593 4.806,-11.39c-13.222,31.162 -30.085,60.659 -50.761,87.483c2.485,-3.216 4.97,-6.432 7.455,-9.649c-16.44,21.097 -35.121,40.336 -56.287,56.725l9.649,-7.455c-16.265,12.428 -33.799,23.018 -52.642,31.057c3.796,-1.602 7.593,-3.204 11.389,-4.807c-17.965,7.498 -36.828,12.491 -56.104,15.159c4.225,-0.567 8.45,-1.135 12.675,-1.703c-20.756,2.705 -41.664,2.576 -62.41,-0.149c4.224,0.568 8.449,1.136 12.674,1.703c-23.566,-3.268 -46.448,-9.794 -68.408,-18.908c3.797,1.602 7.593,3.204 11.389,4.806c-27.256,-11.51 -52.648,-26.796 -76.118,-44.771c3.216,2.485 6.433,4.97 9.649,7.455c-29.418,-22.772 -55.457,-49.5 -78.199,-78.909c2.485,3.217 4.97,6.433 7.455,9.65c-25.068,-32.72 -46.225,-68.491 -62.257,-106.48c1.602,3.796 3.204,7.593 4.806,11.389c-12.577,-30.258 -21.621,-61.788 -26.135,-94.268c0.568,4.225 1.135,8.45 1.703,12.674c-3.889,-29.5 -3.669,-59.291 0.274,-88.774c-0.567,4.225 -1.135,8.45 -1.703,12.674c4.009,-28.637 11.453,-56.662 22.625,-83.347c-1.602,3.797 -3.205,7.593 -4.807,11.389c8.861,-20.775 19.908,-40.515 33.668,-58.453l-7.455,9.649c10.015,-12.834 21.301,-24.514 34.134,-34.552c-3.216,2.485 -6.433,4.97 -9.649,7.455c10.58,-8.074 21.963,-14.828 34.181,-20.115c-3.797,1.603 -7.593,3.205 -11.389,4.807c12.316,-5.15 25.114,-8.668 38.341,-10.482c-4.225,0.568 -8.45,1.136 -12.675,1.704c12.467,-1.553 24.958,-1.555 37.427,-0.026c-4.225,-0.568 -8.449,-1.135 -12.674,-1.703c13.223,1.785 26.033,5.248 38.385,10.288c-3.796,-1.602 -7.592,-3.204 -11.389,-4.806c13.394,5.653 25.842,13.014 37.352,21.889c-3.217,-2.485 -6.433,-4.97 -9.65,-7.455c12.018,9.488 22.619,20.397 32.053,32.444l-7.455,-9.649c13.878,18.051 24.894,37.969 33.798,58.894c-1.602,-3.796 -3.205,-7.593 -4.807,-11.389c13.898,33.261 22.384,68.454 27.202,104.121c-0.568,-4.225 -1.136,-8.45 -1.703,-12.675c5.537,42.427 6.428,85.82 0.913,128.297c0.568,-4.225 1.135,-8.45 1.703,-12.675c-3.285,24.241 -8.707,48.245 -18.112,70.888c1.602,-3.796 3.204,-7.592 4.806,-11.389c-5.085,11.907 -11.25,23.243 -19.093,33.569c2.485,-3.217 4.97,-6.433 7.455,-9.65c-5.335,6.81 -11.271,12.953 -18.065,18.318c3.216,-2.485 6.433,-4.97 9.649,-7.455c-6.474,4.917 -13.421,8.853 -20.901,12.023c3.797,-1.602 7.593,-3.204 11.39,-4.806c-10.171,4.043 -20.685,6.444 -31.509,7.932c4.225,-0.568 8.45,-1.136 12.674,-1.703c-30.359,3.812 -61.626,3.349 -92.155,2.435c-32.174,-0.963 -64.269,-3.661 -96.171,-7.93l12.674,1.704c-31.666,-4.324 -63.105,-10.191 -94.181,-17.668c-30.355,-7.304 -61.805,-15.027 -90.805,-26.744c3.796,1.602 7.593,3.204 11.389,4.807c-2.427,-1.095 -4.64,-2.344 -6.782,-3.923c3.217,2.485 6.433,4.97 9.65,7.455c-1.249,-1.061 -2.292,-2.096 -3.35,-3.346c2.485,3.216 4.97,6.432 7.455,9.649c-0.652,-0.843 -1.212,-1.743 -1.68,-2.7l4.807,11.389c-0.69,-1.647 -1.086,-3.054 -1.385,-4.817l1.703,12.674c-0.134,-1.036 -0.134,-2.07 -0.001,-3.103c-0.567,4.224 -1.135,8.449 -1.703,12.674l0.273,-1.11c-1.602,3.796 -3.204,7.593 -4.806,11.389c0.217,-0.643 0.546,-1.222 0.988,-1.736c-2.485,3.217 -4.97,6.433 -7.455,9.65l0.675,-0.639c-3.217,2.485 -6.433,4.97 -9.65,7.455c0.487,-0.375 1.021,-0.658 1.605,-0.85c-3.797,1.603 -7.593,3.205 -11.389,4.807c0.296,-0.075 0.592,-0.15 0.888,-0.224l-12.675,1.703c0.611,-0.106 1.226,-0.132 1.844,-0.079l-12.674,-1.704c0.965,0.14 1.72,0.341 2.622,0.709l-11.389,-4.806c0.251,0.143 0.502,0.287 0.752,0.431c-3.216,-2.485 -6.432,-4.97 -9.649,-7.455c0.462,0.305 0.861,0.677 1.197,1.116c-2.485,-3.217 -4.97,-6.433 -7.455,-9.649c0.134,0.224 0.269,0.448 0.403,0.672c-1.602,-3.797 -3.204,-7.593 -4.806,-11.389c0.081,0.246 0.163,0.493 0.244,0.74c-0.568,-4.225 -1.135,-8.45 -1.703,-12.675c0.022,0.267 0.044,0.534 0.065,0.801l1.704,-12.675c-0.035,0.622 -0.198,1.209 -0.491,1.76c1.602,-3.796 3.205,-7.593 4.807,-11.389c-0.199,0.315 -0.399,0.631 -0.598,0.946c-13.337,21.123 -5.127,53.485 17.105,65.231c23.506,12.42 50.996,5.441 65.231,-17.104" style="fill:#fff;fill-opacity:0.09;fill-rule:nonzero;"/></svg>