<svg xmlns="http://www.w3.org/2000/svg" width="146.75" height="54.444" viewBox="0 0 146.75 54.444">
  <g id="Grupo_1510" data-name="Grupo 1510" transform="translate(-237.277 -456.149)">
    <path id="Trazado_5023" data-name="Trazado 5023" d="M1154.275,2029.452a5.631,5.631,0,0,0-5.938-2.1l2.988,10.854a5.57,5.57,0,0,0,.642-.226,5.632,5.632,0,0,0,2.308-8.526" transform="translate(-888.383 -1531.918)" fill="#f7921e"/>
    <path id="Trazado_5024" data-name="Trazado 5024" d="M982.136,2034.517a5.631,5.631,0,0,0,3.571,10.673l-2.988-10.854a5.6,5.6,0,0,0-.583.181" transform="translate(-722.765 -1538.904)" fill="#f28222"/>
    <path id="Trazado_5025" data-name="Trazado 5025" d="M610.517,1339.978a5.634,5.634,0,1,0,6.7,9.062c.181-.134,4.292-3.214,4.292-3.214l-3.183-11.564s-7.642,5.594-7.807,5.716" transform="translate(-361.721 -856.256)" fill="#1aa8c4"/>
    <path id="Trazado_5026" data-name="Trazado 5026" d="M975.726,1251.7a5.634,5.634,0,0,0-7.88-1.182c-.17.125-2.495,1.888-2.495,1.888l3.183,11.564s5.826-4.255,6.009-4.39a5.634,5.634,0,0,0,1.182-7.88" transform="translate(-709.953 -773.518)" fill="#20c2d5"/>
    <path id="Trazado_5027" data-name="Trazado 5027" d="M255.6,693.52l-3.206-11.648-13.121,9.722.007.009a5.633,5.633,0,0,0,6.682,9.041l.006.009Z" transform="translate(0 -220.104)" fill="#074889"/>
    <path id="Trazado_5028" data-name="Trazado 5028" d="M803.8,457.457l-8.66-1.3a.748.748,0,0,0-.712,1.184l.318.43-6.831,5.069,3.206,11.648,10.166-7.514.071-.05.068-.053.029-.022.333.45a.748.748,0,0,0,1.341-.334l1.3-8.66a.748.748,0,0,0-.629-.85" transform="translate(-536.927 0)" fill="#0a568e"/>
    <g id="Grupo_1510-2" data-name="Grupo 1510" transform="translate(278.948 465.518)">
      <path id="Trazado_5029" data-name="Trazado 5029" d="M1922.414,847.68l-.323,1.766a.464.464,0,0,1-.437.38H1917.8c-.892,0-1.272.3-1.443,1.291l-.3,1.709h4.917a.289.289,0,0,1,.3.3v.076l-.3,1.8a.485.485,0,0,1-.456.38H1915.6l-.968,5.544a.485.485,0,0,1-.456.38h-2.468a.289.289,0,0,1-.3-.3v-.076l1.728-9.815c.626-3.588,2.715-4.082,5.335-4.082a20.516,20.516,0,0,1,3.626.266c.228.038.342.114.342.285A.817.817,0,0,0,1922.414,847.68Z" transform="translate(-1911.403 -846.674)" fill="#074889"/>
      <path id="Trazado_5030" data-name="Trazado 5030" d="M2356.822,836.682l-1.784,10.119a.4.4,0,0,1-.456.38h-2.316a.291.291,0,0,1-.3-.38l1.785-10.119a.464.464,0,0,1,.437-.38h2.316A.3.3,0,0,1,2356.822,836.682Zm-2.81-1.993.3-1.766a.415.415,0,0,1,.456-.38h2.468c.228,0,.361.095.3.38l-.3,1.766a.415.415,0,0,1-.456.38h-2.468A.291.291,0,0,1,2354.013,834.688Z" transform="translate(-2340.989 -832.543)" fill="#074889"/>
      <path id="Trazado_5031" data-name="Trazado 5031" d="M2580.815,981.768l-1.1,6.322a.525.525,0,0,1-.475.4h-2.3a.3.3,0,0,1-.3-.323v-.076l1.1-6.322a5.085,5.085,0,0,0,.095-.835c0-.7-.456-.93-1.025-.93a4.754,4.754,0,0,0-2.05.607l-1.31,7.48a.5.5,0,0,1-.456.4h-2.3a.325.325,0,0,1-.323-.342v-.057l1.785-10.1a.464.464,0,0,1,.437-.38h2.069a.309.309,0,0,1,.323.323v.057l-.076.456a5.042,5.042,0,0,1,2.962-.987,2.854,2.854,0,0,1,3.056,3.151A6.429,6.429,0,0,1,2580.815,981.768Z" transform="translate(-2553.971 -973.851)" fill="#074889"/>
      <path id="Trazado_5032" data-name="Trazado 5032" d="M3053.945,977.933c.437.114.551.19.494.57l-1.671,9.606a.4.4,0,0,1-.437.38H3050.4a.3.3,0,0,1-.323-.38l.076-.551a4.563,4.563,0,0,1-2.943,1.1c-2.278,0-3.189-1.747-3.189-3.645a6.714,6.714,0,0,1,.095-1.063s.247-1.424.3-1.785c.569-3.3,2.62-4.708,5.6-4.708A16.022,16.022,0,0,1,3053.945,977.933Zm-4.329,2.05c-1.348,0-1.9.8-2.164,2.335l-.342,1.993a3.486,3.486,0,0,0-.057.627c0,.626.228,1.158,1.082,1.158a4.357,4.357,0,0,0,2.012-.665l.93-5.335A9.947,9.947,0,0,0,3049.617,979.983Z" transform="translate(-3015.824 -973.851)" fill="#074889"/>
      <path id="Trazado_5033" data-name="Trazado 5033" d="M3490.723,981.768l-1.1,6.322a.526.526,0,0,1-.475.4h-2.3a.3.3,0,0,1-.3-.323v-.076l1.1-6.322a5.085,5.085,0,0,0,.095-.835c0-.7-.456-.93-1.025-.93a4.754,4.754,0,0,0-2.05.607l-1.31,7.48a.5.5,0,0,1-.456.4h-2.3a.325.325,0,0,1-.323-.342v-.057l1.785-10.1a.464.464,0,0,1,.437-.38h2.069a.309.309,0,0,1,.323.323v.057l-.076.456a5.042,5.042,0,0,1,2.962-.987,2.854,2.854,0,0,1,3.056,3.151A6.45,6.45,0,0,1,3490.723,981.768Z" transform="translate(-3441.23 -973.851)" fill="#074889"/>
      <path id="Trazado_5034" data-name="Trazado 5034" d="M3944.671,984.206l-.247,1.4a1.416,1.416,0,0,1-.323.664l-4.727,5.373a.239.239,0,0,0-.076.133c0,.057.038.076.114.076h3.607a.251.251,0,0,1,.285.247v.057l-.323,1.9a.485.485,0,0,1-.456.38h-7.119c-.3,0-.551-.095-.551-.456a.524.524,0,0,1,.019-.171l.209-1.215a1.25,1.25,0,0,1,.4-.721l4.955-5.619a.227.227,0,0,0,.076-.152c0-.057-.038-.076-.114-.076h-3.664a.235.235,0,0,1-.266-.247v-.057l.323-1.785a.464.464,0,0,1,.437-.38h6.929c.3,0,.531.133.531.475A.524.524,0,0,1,3944.671,984.206Z" transform="translate(-3884.49 -979.801)" fill="#074889"/>
      <path id="Trazado_5035" data-name="Trazado 5035" d="M4356.647,977.933c.437.114.55.19.493.57l-1.67,9.606a.4.4,0,0,1-.437.38H4353.1a.3.3,0,0,1-.323-.38l.076-.551a4.562,4.562,0,0,1-2.942,1.1c-2.278,0-3.189-1.747-3.189-3.645a6.742,6.742,0,0,1,.095-1.063s.247-1.424.3-1.785c.57-3.3,2.62-4.708,5.6-4.708A16.026,16.026,0,0,1,4356.647,977.933Zm-4.329,2.05c-1.348,0-1.9.8-2.164,2.335l-.342,1.993a3.486,3.486,0,0,0-.057.627c0,.626.228,1.158,1.082,1.158a4.356,4.356,0,0,0,2.012-.665l.931-5.335A9.95,9.95,0,0,0,4352.318,979.983Z" transform="translate(-4286.1 -973.851)" fill="#074889"/>
      <path id="Trazado_5036" data-name="Trazado 5036" d="M4783.057,978.331l-.266,1.538a.39.39,0,0,1-.38.361h-.057a29.2,29.2,0,0,0-3.113-.247h-.076c-.494,0-1.044.019-1.044.664,0,.228.152.4.456.589l2.107,1.348a2.759,2.759,0,0,1,1.5,2.354c0,2.753-2.24,3.721-4.689,3.721a13.966,13.966,0,0,1-3.379-.418.342.342,0,0,1-.285-.342V987.8l.285-1.538a.416.416,0,0,1,.437-.361h.057a28.851,28.851,0,0,0,3.189.266c.646,0,1.253-.057,1.253-.854,0-.247-.152-.494-.569-.759l-2.221-1.424a2.653,2.653,0,0,1-1.234-2.259c0-2.658,2.164-3.417,4.442-3.417a12.43,12.43,0,0,1,3.3.437.342.342,0,0,1,.285.342Z" transform="translate(-4702.581 -973.851)" fill="#074889"/>
    </g>
    <g id="Grupo_1511" data-name="Grupo 1511" transform="translate(278.32 486.21)">
      <path id="Trazado_5037" data-name="Trazado 5037" d="M1893.24,1664.116c.3.082.312.164.279.378l-.263,1.461c-.033.181-.066.312-.394.279a15.594,15.594,0,0,0-1.986-.115c-.8,0-1.4.378-1.674,1.9l-.246,1.379a5.359,5.359,0,0,0-.082.788c0,.886.41,1.116,1.1,1.116a16.168,16.168,0,0,0,2.019-.115c.246-.033.328.1.3.279l-.263,1.461c-.049.246-.148.312-.41.378a9.168,9.168,0,0,1-2.183.246,2.979,2.979,0,0,1-3.234-3.185,5.1,5.1,0,0,1,.1-.969l.246-1.379c.542-3.07,2.167-4.153,4.547-4.153A8.626,8.626,0,0,1,1893.24,1664.116Z" transform="translate(-1886.198 -1663.87)" fill="#074889"/>
      <path id="Trazado_5038" data-name="Trazado 5038" d="M2207.977,1668.138l-.213,1.149c-.525,2.791-1.953,4.268-4.859,4.268a3.164,3.164,0,0,1-3.447-3.349,4.45,4.45,0,0,1,.082-.919l.213-1.149c.558-2.971,2.134-4.268,4.859-4.268a3.129,3.129,0,0,1,3.464,3.316A6.8,6.8,0,0,1,2207.977,1668.138Zm-3.759-2c-.952,0-1.56.558-1.822,2l-.213,1.149a4.94,4.94,0,0,0-.082.788c0,.854.394,1.231,1.215,1.231,1.067,0,1.559-.689,1.806-2.019l.213-1.149a4.576,4.576,0,0,0,.082-.755C2205.416,1666.529,2205.022,1666.135,2204.218,1666.135Z" transform="translate(-2191.66 -1663.87)" fill="#074889"/>
      <path id="Trazado_5039" data-name="Trazado 5039" d="M2585.052,1667.6l-.952,5.466a.454.454,0,0,1-.41.345H2581.7a.263.263,0,0,1-.263-.279v-.066l.952-5.466a4.432,4.432,0,0,0,.082-.722c0-.607-.394-.8-.886-.8a4.112,4.112,0,0,0-1.773.525l-1.133,6.468a.435.435,0,0,1-.394.345H2576.3a.281.281,0,0,1-.279-.3v-.049l1.543-8.733a.4.4,0,0,1,.377-.328h1.789a.267.267,0,0,1,.279.279v.049l-.066.394a4.36,4.36,0,0,1,2.561-.854,2.468,2.468,0,0,1,2.643,2.725A5.577,5.577,0,0,1,2585.052,1667.6Z" transform="translate(-2558.854 -1663.87)" fill="#074889"/>
    </g>
    <g id="Grupo_1512" data-name="Grupo 1512" transform="translate(309.7 483.022)">
      <path id="Trazado_5040" data-name="Trazado 5040" d="M3157.3,1557.545l-.016.148c-.345,3.1-2.758,3.973-5.6,3.973-.394,0-.919-.033-1.33-.049l-.689,3.989a.419.419,0,0,1-.394.328h-2.117a.254.254,0,0,1-.279-.263v-.049l1.953-11.031c.1-.558.345-.706.87-.788a25.117,25.117,0,0,1,3.382-.214c2.5,0,4.252.985,4.252,3.333C3157.329,1557.118,3157.313,1557.332,3157.3,1557.545Zm-4.6-1.625c-.23,0-1.149.033-1.346.049l-.591,3.349c.18.016,1.149.033,1.33.033,1.461,0,2.265-.525,2.4-1.658l.017-.148a2.1,2.1,0,0,0,.016-.312C3154.522,1556.3,3153.947,1555.92,3152.7,1555.92Z" transform="translate(-3146.872 -1553.146)" fill="#074889"/>
      <path id="Trazado_5041" data-name="Trazado 5041" d="M3565.765,1666.692l-.279,1.559c-.033.148-.148.312-.3.312h-.131a4.988,4.988,0,0,0-2.216.574l-1.133,6.419a.435.435,0,0,1-.394.345h-1.986a.277.277,0,0,1-.279-.279v-.066l1.543-8.733a.4.4,0,0,1,.377-.328h1.954a.264.264,0,0,1,.279.263v.066l-.066.328a3.219,3.219,0,0,1,2.347-.788.267.267,0,0,1,.279.279Z" transform="translate(-3548.792 -1663.114)" fill="#074889"/>
      <path id="Trazado_5042" data-name="Trazado 5042" d="M3829.386,1670.632l-.213,1.149c-.525,2.791-1.954,4.268-4.859,4.268a3.164,3.164,0,0,1-3.447-3.349,4.45,4.45,0,0,1,.082-.919l.213-1.149c.558-2.971,2.134-4.268,4.859-4.268a3.129,3.129,0,0,1,3.464,3.316A6.841,6.841,0,0,1,3829.386,1670.632Zm-3.759-2c-.952,0-1.56.558-1.822,2l-.213,1.149a4.939,4.939,0,0,0-.082.788c0,.854.394,1.231,1.215,1.231,1.067,0,1.56-.689,1.806-2.019l.213-1.149a4.572,4.572,0,0,0,.082-.755C3826.825,1669.023,3826.431,1668.629,3825.626,1668.629Z" transform="translate(-3804.09 -1663.114)" fill="#074889"/>
      <path id="Trazado_5043" data-name="Trazado 5043" d="M4183.923,1670.566l-.213,1.28c-.509,3.053-2.232,4.2-4.728,4.2a11.616,11.616,0,0,1-1.461-.115l-.509,2.84a.4.4,0,0,1-.377.328h-1.986a.281.281,0,0,1-.3-.279v-.049l2.036-11.507c.049-.263.131-.378.591-.476a16.424,16.424,0,0,1,3.562-.427,3.145,3.145,0,0,1,3.464,3.316A5.736,5.736,0,0,1,4183.923,1670.566Zm-3.759-2a9.9,9.9,0,0,0-1.362.082l-.9,5.122a8.8,8.8,0,0,0,1.231.1c1.034,0,1.642-.394,1.921-2.019l.213-1.28a5.919,5.919,0,0,0,.082-.854C4181.346,1668.958,4181.051,1668.564,4180.164,1668.564Z" transform="translate(-4148.778 -1663.114)" fill="#074889"/>
      <path id="Trazado_5044" data-name="Trazado 5044" d="M4611.539,1543.3l-.213,1.149c-.525,2.791-1.953,4.268-4.859,4.268a3.164,3.164,0,0,1-3.447-3.349,4.432,4.432,0,0,1,.082-.919l.213-1.149c.558-2.971,2.134-4.268,4.859-4.268a3.129,3.129,0,0,1,3.463,3.316A6.837,6.837,0,0,1,4611.539,1543.3Zm-3.759-2c-.952,0-1.559.558-1.822,2l-.213,1.149a4.936,4.936,0,0,0-.082.788c0,.854.394,1.231,1.215,1.231,1.067,0,1.559-.689,1.806-2.019l.213-1.149a4.519,4.519,0,0,0,.082-.755C4608.978,1541.693,4608.584,1541.3,4607.779,1541.3Zm3.743-5.269-2.364,2a.528.528,0,0,1-.427.2h-1.92c-.082,0-.131-.033-.131-.1a.284.284,0,0,1,.1-.181l1.871-1.921c.181-.181.246-.246.476-.246h2.315c.1,0,.18.033.18.1A.2.2,0,0,1,4611.522,1536.029Z" transform="translate(-4566.774 -1535.783)" fill="#074889"/>
      <path id="Trazado_5045" data-name="Trazado 5045" d="M4979.651,1667.119l-.23,1.33a.337.337,0,0,1-.328.312h-.049a25.254,25.254,0,0,0-2.692-.213h-.066c-.427,0-.9.016-.9.574,0,.2.131.345.394.509l1.822,1.166a2.385,2.385,0,0,1,1.3,2.036c0,2.38-1.937,3.218-4.055,3.218a12.075,12.075,0,0,1-2.922-.361.3.3,0,0,1-.246-.3v-.082l.246-1.33a.36.36,0,0,1,.378-.312h.049a24.926,24.926,0,0,0,2.758.23c.558,0,1.083-.049,1.083-.739,0-.214-.132-.427-.493-.657l-1.92-1.231a2.294,2.294,0,0,1-1.067-1.953c0-2.3,1.872-2.955,3.841-2.955a10.757,10.757,0,0,1,2.856.378.3.3,0,0,1,.246.3Z" transform="translate(-4926.251 -1663.114)" fill="#074889"/>
      <path id="Trazado_5046" data-name="Trazado 5046" d="M5317.9,1544.638l-1.543,8.75a.349.349,0,0,1-.394.328h-2a.252.252,0,0,1-.263-.328l1.543-8.75a.4.4,0,0,1,.377-.328h2A.257.257,0,0,1,5317.9,1544.638Zm-2.43-1.724.263-1.527a.358.358,0,0,1,.394-.328h2.134c.2,0,.312.082.262.328l-.262,1.527a.359.359,0,0,1-.394.328h-2.134A.252.252,0,0,1,5315.472,1542.914Z" transform="translate(-5259.758 -1540.928)" fill="#074889"/>
      <path id="Trazado_5047" data-name="Trazado 5047" d="M5538.437,1592.869l-.246,1.33a.4.4,0,0,1-.378.328h-1.346l-.854,4.777a2.884,2.884,0,0,0-.049.46c0,.246.115.312.459.312h.8c.164,0,.3.066.3.23v.049l-.23,1.281a.4.4,0,0,1-.361.328,7.6,7.6,0,0,1-1.33.131c-1.494,0-2.331-.542-2.331-1.97a5.516,5.516,0,0,1,.082-.837l.837-4.76-1.28-.213a.3.3,0,0,1-.279-.3v-.049l.181-1.083a.454.454,0,0,1,.41-.345h1.313l.229-1.346a.442.442,0,0,1,.395-.328l2.068-.345h.049a.22.22,0,0,1,.247.23v.049l-.312,1.74h1.346a.267.267,0,0,1,.279.279Z" transform="translate(-5472.857 -1589.159)" fill="#074889"/>
      <path id="Trazado_5048" data-name="Trazado 5048" d="M5795.309,1670.632l-.213,1.149c-.525,2.791-1.954,4.268-4.859,4.268a3.164,3.164,0,0,1-3.447-3.349,4.433,4.433,0,0,1,.082-.919l.213-1.149c.558-2.971,2.134-4.268,4.859-4.268a3.129,3.129,0,0,1,3.464,3.316A6.837,6.837,0,0,1,5795.309,1670.632Zm-3.759-2c-.952,0-1.559.558-1.822,2l-.214,1.149a4.993,4.993,0,0,0-.082.788c0,.854.394,1.231,1.215,1.231,1.067,0,1.56-.689,1.806-2.019l.213-1.149a4.577,4.577,0,0,0,.083-.755C5792.748,1669.023,5792.354,1668.629,5791.549,1668.629Z" transform="translate(-5721.079 -1663.114)" fill="#074889"/>
    </g>
    <path id="Trazado_5049" data-name="Trazado 5049" d="M4241.98,2231.812c-.016.062-.027.111-.042.159q-1.313,4.323-2.627,8.646l-.391,1.288c-.046.152-.046.152-.2.154h-44.954a.235.235,0,0,1-.023-.025.027.027,0,0,1,0-.014.268.268,0,0,1,.007-.056q1.534-5.047,3.07-10.094a.4.4,0,0,1,.03-.057Z" transform="translate(-3857.98 -1731.465)" fill="#f7921e"/>
    <g id="Grupo_1513" data-name="Grupo 1513" transform="translate(340.722 502.328)">
      <path id="Trazado_5050" data-name="Trazado 5050" d="M4397.811,2317.6h-.5c-.074,0-.107-.058-.116-.124l-.207-1.9h-2.143l-.86,1.9a.174.174,0,0,1-.174.124h-.5a.1.1,0,0,1-.116-.108.163.163,0,0,1,.017-.083l2.482-5.386a.961.961,0,0,1,.952-.629.642.642,0,0,1,.728.62l.579,5.394v.033C4397.951,2317.532,4397.91,2317.6,4397.811,2317.6Zm-1.134-5.4c-.008-.091-.049-.149-.132-.149a.209.209,0,0,0-.19.149l-1.233,2.722h1.829Z" transform="translate(-4393.194 -2311.393)" fill="#fff"/>
      <path id="Trazado_5051" data-name="Trazado 5051" d="M4632.45,2311.525c.066.008.132.025.116.107l-.074.422c-.008.074-.042.1-.141.091-.29-.025-.894-.075-1.374-.075-.811,0-1.522.48-1.771,1.878l-.207,1.15a3.432,3.432,0,0,0-.058.612c0,.927.488,1.266,1.167,1.266.472,0,1.084-.05,1.382-.066.132-.008.157.025.141.132l-.058.339c-.017.1-.049.141-.2.166a6.76,6.76,0,0,1-1.39.108,1.723,1.723,0,0,1-1.8-1.895,3.894,3.894,0,0,1,.058-.662l.207-1.15c.381-2.1,1.581-2.556,2.631-2.556A8.447,8.447,0,0,1,4632.45,2311.525Z" transform="translate(-4622.34 -2311.393)" fill="#fff"/>
      <path id="Trazado_5052" data-name="Trazado 5052" d="M4789.359,2317.6h-.5c-.074,0-.107-.058-.116-.124l-.207-1.9H4786.4l-.86,1.9a.174.174,0,0,1-.174.124h-.5a.1.1,0,0,1-.116-.108.163.163,0,0,1,.017-.083l2.482-5.386a.962.962,0,0,1,.952-.629.642.642,0,0,1,.728.62l.579,5.394v.033C4789.5,2317.532,4789.458,2317.6,4789.359,2317.6Zm-1.133-5.4c-.009-.091-.05-.149-.133-.149a.21.21,0,0,0-.19.149l-1.232,2.722h1.829Z" transform="translate(-4774.996 -2311.393)" fill="#fff"/>
      <path id="Trazado_5053" data-name="Trazado 5053" d="M5016.7,2313.966l-.19,1.117a2.733,2.733,0,0,1-2.962,2.573,11.384,11.384,0,0,1-1.489-.083c-.132-.025-.157-.091-.141-.207l1-5.684a.247.247,0,0,1,.207-.207,12.115,12.115,0,0,1,1.522-.083c1.266,0,2.11.629,2.11,1.936A3.562,3.562,0,0,1,5016.7,2313.966Zm-2.167-1.928c-.389,0-.646.008-.918.025l-.869,4.931c.265.017.529.017.918.017a2.019,2.019,0,0,0,2.093-1.928l.19-1.117a3.266,3.266,0,0,0,.058-.6C5016,2312.344,5015.373,2312.038,5014.529,2312.038Z" transform="translate(-4996.509 -2311.393)" fill="#fff"/>
      <path id="Trazado_5054" data-name="Trazado 5054" d="M5234.133,2312.932l-.2,1.15h2.54c.091,0,.149.041.132.165l-.05.314a.175.175,0,0,1-.2.165h-2.54l-.24,1.39a1.871,1.871,0,0,0-.042.339c0,.372.207.521.9.521h1.572c.083,0,.116.017.1.1l-.074.406c-.008.05-.017.1-.1.116-.24.025-1.134.058-1.622.058-.943,0-1.522-.389-1.522-1.191a1.749,1.749,0,0,1,.033-.347l.554-3.185c.215-1.216.877-1.539,2.035-1.539a10.357,10.357,0,0,1,1.6.074c.058.008.083.033.066.116l-.075.389c-.008.083-.049.1-.107.1h-1.6C5234.431,2312.071,5234.241,2312.3,5234.133,2312.932Z" transform="translate(-5211.895 -2311.393)" fill="#fff"/>
      <path id="Trazado_5055" data-name="Trazado 5055" d="M5413.661,2313.72c.148,0,.223.083.2.24l-1.009,5.742c-.017.091-.042.166-.2.166h-.405a.127.127,0,0,1-.132-.166l.852-4.865c.008-.042,0-.05-.008-.05s-.017.016-.025.025l-1.6,2.424a.431.431,0,0,1-.414.24h-.38a.288.288,0,0,1-.331-.24l-.728-2.416c-.017-.05-.025-.05-.033-.05s-.017.008-.025.066l-.852,4.865a.176.176,0,0,1-.2.166h-.405a.132.132,0,0,1-.132-.166l1.009-5.742a.248.248,0,0,1,.281-.24h.513c.166,0,.207.033.24.141l.869,2.838c.025.074.042.091.083.091s.066-.017.116-.091l1.861-2.838a.284.284,0,0,1,.29-.141Z" transform="translate(-5382.578 -2313.662)" fill="#fff"/>
      <path id="Trazado_5056" data-name="Trazado 5056" d="M5665.694,2313.72c.108,0,.141.05.125.157l-1.026,5.824c-.017.116-.066.166-.182.166h-.455c-.107,0-.132-.083-.116-.166l1.026-5.824c.016-.083.049-.157.174-.157Z" transform="translate(-5632.402 -2313.662)" fill="#fff"/>
      <path id="Trazado_5057" data-name="Trazado 5057" d="M5737.643,2317.6h-.5c-.074,0-.107-.058-.116-.124l-.207-1.9h-2.143l-.86,1.9a.174.174,0,0,1-.174.124h-.5a.1.1,0,0,1-.116-.108.163.163,0,0,1,.017-.083l2.482-5.386a.962.962,0,0,1,.952-.629.642.642,0,0,1,.728.62l.579,5.394v.033C5737.783,2317.532,5737.742,2317.6,5737.643,2317.6Zm-1.134-5.4c-.008-.091-.049-.149-.132-.149a.209.209,0,0,0-.19.149l-1.233,2.722h1.829Z" transform="translate(-5699.676 -2311.393)" fill="#fff"/>
    </g>
  </g>
</svg>
